<?xml version="1.0" encoding="utf-8"?>
<!-- Generator: Adobe Illustrator 23.0.1, SVG Export Plug-In . SVG Version: 6.00 Build 0)  -->
<svg version="1.1" id="Layer_1" xmlns="http://www.w3.org/2000/svg" xmlns:xlink="http://www.w3.org/1999/xlink" x="0px" y="0px"
	 viewBox="0 0 448 448" style="enable-background:new 0 0 448 448;" xml:space="preserve">
<style type="text/css">
	.st0{fill:#FFFFFF;}
</style>
<g>
	<path class="st0" d="M120.1,176.3c-3.9-2.9-7.8-4.3-11.6-4.3H91v104.5h17.4c3.9,0,7.8-1.5,11.7-4.4c3.9-2.9,5.8-7.3,5.8-13.1v-69.6
		C125.9,183.5,124,179.2,120.1,176.3z"/>
	<path class="st0" d="M404.1,0H43.9C19.7,0,0.1,19.6,0,43.8v360.4C0.1,428.4,19.7,448,43.9,448h360.2c24.2,0,43.8-19.6,43.9-43.8
		V43.8C447.9,19.6,428.3,0,404.1,0z M105.8,306.4H59.4V141h47.4c35.4,0,47.4,28.5,47.4,47.3l0,70.9
		C154.2,278,142.6,306.5,105.8,306.4z M234.2,209v29.6h-32.6v38.4h53.3v29.6h-62.2c-11.2,0.3-20.4-8.5-20.7-19.7V161.7
		c-0.3-11.2,8.6-20.4,19.7-20.7h63.2l0,29.5h-53.3V209H234.2z M358.5,285.8L358.5,285.8c-13.2,30.8-36.9,24.6-47.4,0L272.6,141h32.6
		l29.7,113.7L364.4,141H397L358.5,285.8z"/>
</g>
</svg>
