<?xml version="1.0" encoding="utf-8"?>
<!-- Generator: Adobe Illustrator 23.0.1, SVG Export Plug-In . SVG Version: 6.00 Build 0)  -->
<svg version="1.1" id="Layer_1" xmlns="http://www.w3.org/2000/svg" xmlns:xlink="http://www.w3.org/1999/xlink" x="0px" y="0px"
	 viewBox="0 0 306.1 318.2" style="enable-background:new 0 0 306.1 318.2;" xml:space="preserve">
<style type="text/css">
	.st0{fill:none;stroke:#FE595E;stroke-width:20;stroke-miterlimit:10;}
</style>
<path class="st0" d="M178.4,21.1c2.9,3.1,7.1,7.8,11.5,13.9c7.3,10.1,10.9,18.2,16.3,29.7c2.5,5.3,7.5,15.6,17.6,36.3
	c9.3,19.1,9.5,18.8,18.5,37.4c8.7,18,7.8,16.7,15.8,33.1c6.4,13.1,9.5,19.1,16.4,33.4c6.5,13.7,9.8,20.6,11.1,25
	c2.6,9,6.4,22.2,1.8,37.7c-3.9,13.5-12.2,22.1-16.6,26.1c-13.7,12.3-29.1,14.1-33.6,14.6c-20,2.1-35.1-6.7-46.1-13
	c-14.1-8.2-22.2-17-35.1-31.4c-13-14.5-26.2-29.2-36.5-52.3c-7.7-17.5-14.9-33.9-9.4-52.7c1.2-4.1,5.4-18.5,19.5-26.8
	c15.3-9.1,31.4-4.5,35.1-3.4c4.3,1.2,16.5,4.9,24.6,16.6c8.3,12,7.1,25.1,6.4,33.1c-1,11.8-5,19.8-12.9,35.7
	c-7,14.1-13.9,24.4-17.8,29.9c-5.6,7.9-14.8,19.8-28.3,32.5c-8.9,8.4-14.9,14-24.6,19.7c-9,5.2-20.1,11.8-35.9,12.5
	c-5.9,0.3-22.4,0.8-38.2-10.6c-16.6-12-21.2-29.2-22.3-34c-3.6-15.8,0.7-28.5,5.2-42c3.6-10.8,5.3-11,16.7-34.7
	c8.8-18.4,7.7-18,17-37.6c7.7-16.2,8-15.4,20.8-41.4c4-8.1,9.1-18.6,15.9-32.5c3.5-7.2,8.7-17.9,16.3-31.4
	c7.9-14.1,11.5-18.9,17.1-23.4c3-2.4,9.3-7.3,18.3-9.1C160.5,7.9,175.3,18.7,178.4,21.1z"/>
</svg>
