<?xml version="1.0" encoding="utf-8"?>
<!-- Generator: Adobe Illustrator 23.0.1, SVG Export Plug-In . SVG Version: 6.00 Build 0)  -->
<svg version="1.1" id="Layer_1" xmlns="http://www.w3.org/2000/svg" xmlns:xlink="http://www.w3.org/1999/xlink" x="0px" y="0px"
	 viewBox="0 0 1280 643" style="enable-background:new 0 0 1280 643;" xml:space="preserve">
<style type="text/css">
	.st0{fill:#FFFFFF;}
</style>
<g transform="translate(0.000000,643.000000) scale(0.100000,-0.100000)">
	<path class="st0" d="M4665,6398c-94-25-136-30-290-36c-200-8-220-14-264-86c-35-57-67-63-179-36s-176,23-249-13
		c-51-26-116-91-145-145c-15-29-78-67-140-86c-27-8-22-44,10-76c36-36,111-52,201-44c79,8,134-7,156-40c8-12,40-105,71-207
		c63-206,73-230,117-276c67-71,134-65,249,23c118,90,162,109,395,169c144,38,252,81,290,117c15,14,25,38,29,68l6,47l59,6
		c105,9,133,46,109,147c-24,107-24,117,3,144c13,13,44,30,68,37s47,18,51,24c16,22,8,92-13,119c-26,33-60,34-132,1
		c-75-35-95-26-138,60c-40,80-78,115-122,114C4789,6428,4726,6414,4665,6398z M4860,6363c11-14,29-46,40-70c40-92,98-115,180-73
		c51,26,86,26,100-1c19-35,5-64-38-77c-54-16-88-46-102-87c-10-30-8-47,11-110c20-70,21-76,5-100c-14-22-23-25-74-25
		c-75,0-94-14-101-76c-5-41-11-52-39-71c-48-32-125-59-297-104c-178-47-256-82-350-154c-109-83-152-93-205-49c-43,37-60,75-120,274
		c-61,204-70,224-113,250c-27,17-51,20-147,20c-90,0-123,4-149,18c-46,23-48,35-8,50c56,20,127,72,127,93c0,30,70,100,125,125
		c59,28,133,31,215,9c112-30,180-15,220,50s54,69,259,76c154,6,202,11,276,32C4798,6397,4833,6397,4860,6363z"/>
	<path class="st0" d="M9171,5935c-35-8-112-30-172-50c-59-20-172-47-251-60c-161-27-236-50-298-91c-35-23-44-26-48-14
		c-9,28-69,76-109,88c-99,30-166,9-303-94c-136-102-157-109-500-149c-118-13-234-27-257-30l-41-6l1,35c1,49-28,85-93,118
		c-114,57-296,58-486,3c-149-44-396-156-486-222c-112-81-122-192-23-253l33-20l-37-38c-20-21-52-57-72-80c-60-71-105-57-206,63
		c-74,88-113,115-168,115c-61,0-69-14-63-113c6-93,29-150,76-188l29-24l-38-36c-44-40-49-68-23-123c26-53,14-77-71-135
		c-83-58-105-89-105-153c0-55,29-103,76-125l35-17l-33-12c-23-8-32-17-31-30c3-30-49-125-136-248c-145-204-187-330-178-531
		c8-190,64-335,179-460c119-130,192-140,391-54c39,17,97,33,128,36c53,5,58,4,74-21c24-36,68-58,121-59c40,0,44-2,38-20
		c-12-37-5-204,10-264c9-32,30-93,47-134c45-104,45-197,0-369c-42-159-49-259-27-370c29-142,82-240,203-373c44-49,78-101,108-163
		c64-134,123-172,222-145c98,26,158,87,220,221c60,131,84,173,148,255c83,107,95,133,111,240c15,99,23,112,116,166
		c85,50,106,159,58,309c-52,163-29,245,126,455c49,67,106,152,126,191c46,87,96,235,100,294l3,45l-90-3c-81-3-93-1-125,20
		c-19,13-50,45-70,70c-39,52-154,257-148,263c2,2,35-46,73-108c88-142,103-157,155-157c73,0,338,117,437,192c93,71,131,197,83,276
		c-24,39-24,39,109,7c267-65,365-176,431-487c23-108,40-142,79-158c38-15,70-8,110,25c39,33,50,71,60,199c10,117,32,170,93,221
		c71,60,171,74,246,36c54-28,109-95,120-145l8-41l45,2l45,2l58-99c31-55,62-103,68-106c6-4,17,1,25,12c13,18,15,17,38-12
		c28-36,89-64,141-64c63,0,119,43,149,112c21,52,19,87-9,141c-16,32-19,47-11,47c22,0,64,59,70,98c14,84,36,111,156,195
		c80,55,114,94,146,165c64,138,43,312-52,428c-41,49-42,54-15,54c49,0,78-29,119-113c58-123,122-167,190-132c51,26,62,61,60,189
		c-3,142,2,151,119,210c99,50,142,90,172,159c44,98,36,212-20,301l-29,45l27,20c42,30,134,57,277,81c71,12,147,29,168,36
		c22,8,43,14,47,14s-8-30-27-66c-78-147-43-290,86-347c53-23,98-17,141,20c42,35,56,65,76,164c35,174,69,204,270,239
		c135,23,212,56,249,104c70,93,27,213-97,266c-49,21-59,22-257,15c-170-6-221-4-291,9c-153,29-391,95-601,166c-114,39-220,70-238,70
		c-47,0-71-30-71-90c0-49,0-49-36-56c-83-15-289,14-574,81c-102,24-223,51-270,60C9491,5949,9253,5954,9171,5935z M9575,5894
		c50-9,185-38,301-65c261-61,379-79,512-79c125,0,142,11,142,90c0,37,4,52,16,57c9,3,118-29,242-71c255-85,541-161,679-178
		c71-9,121-9,226,1c144,14,200,10,257-19c76-39,107-99,84-166c-24-71-85-102-254-130c-101-16-171-42-208-77c-37-34-57-83-82-192
		c-19-83-28-105-55-132c-37-37-77-43-123-19c-126,66-125,217,3,394c47,66,37,87-21,48c-57-37-113-54-271-81c-197-34-252-54-315-113
		l-27-25l26-31c68-80,84-206,39-301c-30-65-58-89-163-144c-123-65-128-75-128-225c0-141-13-176-65-176c-43,0-78,36-124,130
		c-45,93-79,122-142,122c-32,0-74-24-74-42c0-4,18-26,40-49c113-118,132-300,47-442c-24-40-58-73-132-129c-111-84-141-121-151-186
		c-7-51-37-94-64-94c-24,0-60,59-60,99s-26,42-41,4c-18-47-3-89,47-129c54-45,74-80,74-131c0-75-59-136-131-135c-53,1-100,29-122,75
		c-20,41-28,44-47,22c-7-8-16-15-19-15c-4,0-32,43-62,95l-54,96l-42-6c-35-5-43-3-43,10c0,25-29,77-64,113c-96,103-251,107-360,11
		c-70-61-96-125-105-258c-9-118-22-153-66-173c-30-13-71-4-80,19c-4,10-22,77-40,149c-42,169-82,252-160,330c-88,89-133,107-431,178
		c-127,30-237,74-341,137c-45,27-87,49-92,49c-18,0-33-42-28-76c3-19,15-48,27-64c36-51,72-63,213-71c95-5,137-12,165-26
		c48-25,75-75,67-127c-16-110-102-179-358-285c-127-53-159-59-184-34c-24,24-401,626-419,670c-18,42-17,93,1,117c8,11,15,23,15,27
		c0,12-139,95-224,134l-78,36l-54-41l-53-40l-83,120c-46,66-90,120-99,120c-27,0-70-55-76-96l-5-39l-78,78c-96,94-180,138-263,138
		c-87,0-125-22-236-137c-103-108-144-134-206-134c-47,0-71,14-90,50c-33,64-12,108,83,173c100,68,121,108,87,167
		c-35,61-8,105,80,130c51,14,62,40,16,40c-41,0-93,39-118,90c-29,57-33,177-6,187c28,11,85-29,150-107c122-146,190-153,288-30
		c46,58,61,70,85,70c22,0,33-8,51-37c35-60,70-92,106-99c64-12,144,33,217,125c60,75,100,103,149,107c75,7,76,46,2,43
		c-80-5-141,61-131,140c9,68-21,88-84,56c-46-24-60-62-60-160c0-105-15-140-65-154c-64-17-198,32-262,95c-44,44-18,119,60,173
		c99,68,344,175,490,216c214,59,447,36,504-51c25-39,8-77-37-84c-52-7-47-35,5-34c65,3,635,74,684,86c64,15,122,47,226,122
		c107,78,167,100,232,86c24-6,55-18,69-27c32-20,57-68,49-93c-10-33,17-35,44-4c60,70,139,102,314,130c123,19,178,32,322,79
		C9230,5922,9364,5929,9575,5894z M6527,5434c-8-41,11-92,50-135l36-40l-31-27c-17-15-49-49-71-76c-80-99-172-134-218-83
		c-11,12-25,31-31,43c-11,20-9,21,38,16c61-6,103,11,133,52c19,27,22,42,20,120c-3,111,15,152,66,155C6528,5460,6531,5452,6527,5434
		z M6151,4585c34-17,87-60,142-117c72-73,89-86,94-71c4,10,11,21,17,25s11,21,12,39c1,17,11,40,22,51c19,20,20,19,103-101
		c46-66,90-121,98-121c7,0,35,19,62,41l50,41l102-51c142-71,150-78,136-119c-6-18-8-45-4-60c6-27,6-27-32,10c-54,53-116,76-228,88
		c-107,11-129,8-196-27c-56-29-65-27-204,33c-99,43-100,45-130,101c-58,112-152,130-354,69c-61-18-111-33-111-32s42,46,93,101
		c52,56,109,106,132,117C6008,4627,6080,4620,6151,4585z M6097,4400c34-15,48-30,72-78l30-59l108-48c139-61,184-67,248-30
		c45,27,51,28,138,22c188-13,248-54,297-203c18-52,36-80,91-139c57-62,81-100,139-217c162-333,238-410,388-395c28,3,52,2,52-1
		c0-4-9-41-20-82c-32-116-99-243-201-380c-162-220-185-300-135-482c45-166,31-242-56-288c-90-49-103-70-118-187
		c-11-83-31-127-92-204c-69-85-101-137-148-241c-24-53-59-117-77-142c-61-85-186-123-247-75c-14,11-46,62-70,112
		c-31,65-66,116-118,174c-141,157-188,265-195,443c-5,107-3,125,31,259c50,200,50,267-3,404c-61,159-73,247-50,371c12,68,4,83-34,65
		c-41-19-92-3-138,43c-39,40-41,41-94,34c-29-3-105-26-168-51c-175-68-226-60-330,55c-113,125-169,278-170,465
		c-1,185,36,286,175,483c44,61,93,140,109,175c17,34,34,69,38,77s50,27,102,43C6016,4432,6024,4433,6097,4400z M7718,3978l97-49
		l-81,4c-117,7-174,43-174,110v28l31-22C7608,4037,7665,4005,7718,3978z M7070,3962c45-70,50-84,20-57c-25,23-55,71-65,105
		C7015,4043,7022,4036,7070,3962z"/>
	<path class="st0" d="M1535,5856c-27-13-61-35-74-49c-31-34-22-46,73-93l71-35l-145,5c-80,3-266,8-415,12c-230,5-282,9-355,27
		c-117,30-310,29-424-2c-149-40-285-119-233-136c6-2,52-16,102-30c102-31,100-38-20-53c-124-17-145-58-76-154c26-36,38-62,35-75
		c-5-17,4-22,62-40l67-20l-86-74c-48-41-87-77-87-82c0-17,60-29,133-25c74,5,85,9,260,96c100,50,199,96,219,102c63,19,167,14,239-12
		c164-60,375-252,458-415c19-39,46-126,72-239c49-212,91-339,165-494c76-159,174-321,193-318c21,4,33,70,28,146c-3,34-3,62-2,62
		c2,0,16-37,31-82c84-258,137-313,399-418c253-102,296-132,369-258c64-112,102-142,178-142c24,0,50,4,58,10c20,12,30-5,30-53
		c0-44-5-54-75-162c-73-111-96-178-102-300c-9-164,26-266,142-420c95-127,117-177,123-289c5-111-11-198-80-421
		c-178-578-254-1073-190-1235c29-74,73-125,136-158c70-37,188-38,256-3c49,25,90,59,90,74c0,5-16,27-36,49c-45,50-63,92-71,168
		c-8,80,9,160,67,310c27,69,55,150,62,179c14,54,14,54,66,67c98,25,205,96,276,183c23,27,62,65,87,85c101,77,182,196,229,336
		c29,87,56,113,164,155c189,74,246,147,271,349c17,138,26,162,100,251c69,84,83,111,91,168c12,85-57,182-166,236
		c-30,15-99,45-154,66c-120,47-163,84-254,219c-82,122-127,156-307,227c-165,65-175,70-262,136c-57,44-82,57-119,61
		c-26,3-55,13-65,23c-34,34-85,17-170-58c-69-61-107-78-156-68c-55,10-90,53-99,123c-10,82-18,98-84,164c-50,49-60,65-60,93
		c0,24,6,37,20,45c42,22,13,74-48,86c-22,4-52-1-92-15c-82-30-128-25-156,16c-32,48-49,149-34,203c22,83,105,126,194,101
		c88-24,147-101,197-256c25-78,40-108,69-137c42-43,94-57,136-36c46,22,51,42,22,77c-62,73-63,176-5,293c38,77,391,541,449,591
		c41,35,84,35,172,2c89-33,127-33,168,4c28,25,32,35,32,78c0,88-63,153-163,169c-29,5-38,10-29,15c17,12,83,30,136,39
		c42,7,44,6,62-29c36-71,101-111,181-111c89,0,154,60,130,121c-16,44-129,186-199,250c-55,51-171,134-258,185c-16,9-10,13,40,29
		c59,19,160,78,185,108c18,23,7,35-93,101c-110,73-228,130-349,171c-172,57-253,70-437,70c-157,0-168-1-220-26c-30-14-89-51-132-81
		c-80-58-150-84-199-73c-26,6-29,11-29,44c0,37-22,77-60,109c-35,30-90,44-199,52c-64,5-164,20-223,34
		C1697,5888,1603,5888,1535,5856z M1855,5815c55-13,143-27,195-30c128-9,160-18,200-60c27-28,34-44,35-76c1-53,23-69,91-69
		c64,0,119,23,204,85c35,27,89,60,120,74c52,24,63,26,200,25c217-2,408-48,605-146c86-43,235-138,235-149c0-13-97-69-155-89
		c-77-27-101-25-212,10c-51,17-102,30-113,30c-31,0-105,75-134,135c-28,61-51,70-86,35c-16-16-20-31-18-71c2-45-1-54-25-75
		c-39-33-86-39-198-24c-116,15-161,7-208-40c-41-41-47-79-22-128c57-113,221-178,353-142c97,27,184,121,215,232c14,50,20,58,40,58
		c14,0,44-12,69-26c50-29,133-54,183-54c47,0,194-79,290-157c88-70,152-138,218-231c53-73,52-100-1-126c-44-21-71-20-122,3
		c-47,21-80,59-89,103l-7,31l-62-6c-102-8-278-80-262-106c3-4,38-11,78-15c122-11,188-59,188-135c0-32-37-81-60-81
		c-7,0-52,14-102,31c-100,35-138,34-188-1c-54-38-426-526-473-619c-38-77-42-90-41-160c0-58,5-86,22-118c12-23,26-45,32-48
		c19-12-1-25-35-25c-59,0-90,39-134,167c-43,125-86,193-150,238c-39,27-50,30-124,30c-71,0-87-3-116-24c-44-32-71-92-71-162
		c0-125,60-229,134-229c19,0,58,9,86,20s66,20,85,20c35,0,54-14,35-25c-19-12-31-56-24-92c5-25,25-54,69-97c61-62,75-91,75-153
		c0-72,74-143,152-146c49-2,98,24,186,98c61,52,87,59,72,20c-10-27,2-75,20-75c6,0,15,11,20,25c11,29,53,48,84,39c11-3,53-30,91-59
		c85-63,97-70,260-135c194-77,235-109,320-248c61-99,128-154,242-198c138-53,192-81,236-123c50-47,67-80,67-133c0-49-18-82-92-171
		c-69-83-85-123-97-246c-21-202-78-271-285-346c-76-28-121-74-147-153c-35-110-88-200-154-266c-222-220-272-264-335-294
		c-36-17-81-33-101-37c-50-9-53-13-73-85c-9-36-37-117-61-181c-54-142-66-193-66-281c0-90,22-164,65-215c40-46,39-49-35-82
		c-28-13-65-21-104-21c-118,0-206,67-240,183c-49,166,37,684,200,1197c60,191,79,286,79,395c0,144-19,190-163,389
		c-60,81-88,152-103,255c-18,133,23,284,108,395c70,92,87,156,59,221c-17,43-37,52-67,31c-58-41-122-4-191,109c-27,44-65,97-85,117
		c-42,44-153,104-273,148c-258,95-324,157-394,370c-37,113-77,192-120,235c-33,33-65,46-65,27c0-5,14-37,32-72c26-52,32-79,35-144
		l4-81l-20,25c-34,41-187,358-220,455c-30,91-65,224-96,368c-33,152-133,306-280,429c-142,120-248,174-361,185
		c-101,9-170-11-349-103c-88-45-185-89-215-98c-59-18-120-21-120-7c0,5,36,40,80,77s79,72,77,78s-35,20-73,32c-49,16-70,27-73,40
		c-2,11-19,40-38,66c-21,29-33,56-31,70c3,24,18,29,141,43c35,5,51,12,63,31c9,13,14,30,11,37s-41,24-86,38c-44,13-81,27-81,31
		c0,13,148,67,229,84c102,20,288,15,366-10c41-14,146-19,575-31c289-9,531-13,538-10c31,12,1,29-79,45c-93,19-232,77-226,94
		c5,16,65,49,106,57C1649,5852,1737,5843,1855,5815z M3091,5543c6-16,21-42,35-60c29-38,29-39,4-46c-16-4-20-14-20-44
		c0-50-50-153-92-188c-111-94-261-92-370,4c-68,60-74,123-14,160c38,24,88,26,199,10c92-14,147-1,194,46c29,29,33,39,33,89
		C3060,5574,3074,5587,3091,5543z"/>
	<path class="st0" d="M10909,5074c-11-13-14-63-15-228c-2-276-23-417-72-469c-18-19-53-36-108-53c-45-13-97-35-115-47
		c-99-66-102-234-4-253c75-14,256,107,307,205c24,45,28,65,28,130c0,98,12,116,87,131c74,16,103,45,103,102c-1,56-16,74-86,101
		c-44,17-60,29-62,45c-2,14,2,22,11,22c8,0,22,9,32,20c15,16,17,30,12,82c-9,90-23,132-57,168c-16,17-28,36-27,42
		C10947,5090,10924,5091,10909,5074z M10979,4933c6-23,11-62,11-87c0-39-3-46-29-59l-28-14l-7,113c-4,63-4,119,0,125
		C10936,5028,10967,4984,10979,4933z M11015,4661c106-29,99-119-10-136c-34-5-57-16-77-36l-30-29l6,27c13,65,26,161,26,195v37l24-24
		C10967,4682,10994,4667,11015,4661z M10893,4348c-4-93-33-143-116-205c-150-110-217-112-217-6c0,47,29,97,69,118c17,8,65,26,108,40
		c78,24,131,63,146,108C10894,4434,10897,4421,10893,4348z"/>
	<path class="st0" d="M10122,3125c-75-57-121-113-101-126c10-7,23,1,44,25c38,44,105,97,115,91c4-2,10-17,13-32c3-16,22-54,41-87
		c40-65,43-83,20-127c-12-23-14-46-9-92c6-58,5-64-19-86c-17-16-41-25-76-29c-130-12-259,102-260,229v47l45,6c28,5,45,12,45,21
		c0,21-10,23-70,11l-55-11l-3-43c-5-66,22-142,69-196c92-104,245-134,325-64c38,34,49,72,35,123c-8,29-6,44,11,81
		c23,54,20,71-26,148c-19,31-40,79-46,106c-7,28-18,50-25,50S10155,3150,10122,3125z"/>
	<path class="st0" d="M9348,3074c-13-13-9-73,7-104c8-16,46-54,85-85c61-49,74-65,110-142c43-89,135-200,192-229c68-35,138-2,138,67
		c0,52-53,153-106,201c-25,24-92,88-148,144c-61,60-120,109-149,123C9426,3074,9360,3087,9348,3074z M9459,3018c27-13,88-64,147-122
		c56-56,120-118,142-138c43-39,85-110,96-164c5-23,2-34-13-48c-30-28-65-13-137,56c-49,47-75,83-111,156c-42,84-57,103-116,151
		C9341,3011,9337,3077,9459,3018z"/>
	<path class="st0" d="M10800,2848c-93-48-89-148,8-189c130-55,150-68,218-134c108-106,168-241,162-367l-3-63l-30,43
		c-77,110-93,128-135,150c-91,47-160,18-432-179c-237-173-288-221-336-318c-36-74-37-77-37-190c1-115,1-117,48-233
		c40-100,47-126,47-186c0-81,10-94,83-113c61-15,151-7,208,18c25,11,76,48,114,82c99,88,134,105,222,105c63-1,83-6,150-39
		c67-32,97-57,210-170c151-152,165-160,287-153c86,5,161,31,204,71c57,53,86,157,85,307c-2,131-26,230-89,360c-44,90-55,103-213,260
		c-92,91-181,184-199,207c-46,59-83,144-89,207l-6,55l58,3c36,2,60,8,63,16c2,8-7,12-28,12c-18,0-29,4-25,10c14,22,43,7,96-51
		c53-56,59-60,95-57c47,4,71,38,60,84c-14,58-271,276-441,373c-104,60-183,90-252,97C10855,2871,10838,2868,10800,2848z M11047,2786
		c102-49,244-144,364-245c121-101,151-136,147-170c-5-43-44-29-107,39c-31,33-65,60-74,60c-23,0-60-19-70-36c-4-8-17-14-28-14
		c-70,0-31-202,63-323c17-23,107-116,199-207c159-157,169-170,213-260c65-135,81-200,81-350c0-190-33-265-137-310
		c-64-28-203-32-240-8c-13,9-80,72-148,140c-106,107-137,131-204,164c-75,37-86,39-170,39c-111,0-139-12-235-101
		c-90-84-135-104-231-104c-42,0-86,6-100,13c-22,11-25,19-22,57c4,59-13,124-59,234c-62,150-62,266,3,387c41,77,94,126,315,287
		c227,166,267,187,344,187c67,0,84-12,137-95c45-71,91-120,113-120c26,0,35,77,21,174c-29,202-178,385-371,455c-67,24-88,50-77,95
		C10791,2842,10917,2848,11047,2786z"/>
	<path class="st0" d="M7640,2258c-26-13-56-40-71-63c-15-22-38-43-51-46c-12-3-22-11-20-18c1-7-12-24-29-39c-55-46-61-73-54-266
		c7-213,10-228,41-266c53-62,144-28,186,69c11,25,35,107,55,181c27,108,36,161,40,265C7745,2276,7730,2304,7640,2258z M7702,2183
		c14-190-64-539-133-597c-39-33-62-33-88,0c-18,23-21,41-21,116c0,49-5,131-11,182c-11,85-10,97,7,132c10,21,36,50,57,64
		c21,15,54,49,73,78c33,48,73,81,101,82C7694,2240,7700,2217,7702,2183z"/>
	<path class="st0" d="M12667,899c-15-11-31-38-38-62c-6-23-25-58-43-77c-53-57-96-122-96-146c0-32,45-64,89-64
		c107,1,202,106,218,240C12810,897,12739,956,12667,899z M12744,874c34-33,12-153-40-221c-32-42-73-63-124-63c-75,0-65,39,36,149
		c51,55,61,72,57,93c-4,19,1,30,18,42C12720,894,12725,894,12744,874z"/>
</g>
<g transform="translate(0.000000,1280.000000) scale(0.100000,-0.100000)">
	<path class="st0" d="M7900.6,11324.5c-0.5-0.3-1-1.2-1.2-2.1c-0.2-1.2-1.6-2.6-8-7.9c-24.5-20.2-67.1-63.3-95.1-96.1
		c-6.8-8-6.7-7.9-8.4-13c-2.5-7.8-3.8-15.9-4.6-30.2l-0.5-8.9l7.2-6.4c8.4-7.6,16.6-15.2,37.4-35.1c22.9-21.9,29-27.6,43.1-40.1
		l12.7-11.4l-11.3-9.7c-35.6-30.8-53.2-47.3-64-60.1c-3.8-4.5-4.3-5.3-5.2-8.5c-2.3-8-2.6-12.4-2.3-25.8c0.2-8.6,0.1-12.6-0.2-13
		c-0.5-0.6-0.1-2.9,0.4-2.6c0.1,0.1,2.2-2.4,4.4-5.6c7.2-10.2,16.6-21.5,29.2-34.9c28.9-30.7,66.6-64,87.2-77l3.5-2.2l5,3.2
		c2.7,1.7,6.7,4.5,9,6c2.2,1.6,3.5,2.3,2.8,1.7c-0.6-0.6-0.9-1.1-0.5-0.9c0.4,0.1,1.6,0.3,2.6,0.4c3,0.3,8.7,2.3,10.3,3.6
		c0.3,0.3,0.8,0.5,1.1,0.5c0.2,0,0.7,0.3,1.1,0.6c0.3,0.3,1.6,1.2,2.8,2c5.6,3.8,21.9,18.2,35.1,31c0.6,0.6,2.1,2.1,3.4,3.2
		c1.2,1.2,3.2,3.1,4.3,4.3c1.2,1.2,4.1,4,6.6,6.4c2.5,2.3,7,6.8,10.2,10c6.8,6.8,6.2,6.3,13.4,12.8c3.2,2.9,6.9,5.9,8.2,6.8
		c3.5,2.3,7.8,4.3,8.2,3.9c0.4-0.3-0.2,0.5-1.7,2.3c-1.3,1.6,3.9-3.3,19-17.7c23.2-22.2,31-29.3,48.1-44.6
		c21.1-18.7,34.6-29.6,44.5-35.8c6.7-4.3,5.8-4,9.6-2.3c3.6,1.6,10.1,5.7,16.7,10.7c2.3,1.7,4.7,3.2,5.2,3.3
		c2.3,0.4,9.8,4.3,13.9,7.2c6.2,4.5,9.5,7.2,20.6,17c11.6,10.3,13.6,12.2,23.8,22.3c4.4,4.3,8.3,8.2,8.8,8.7c1.1,1.1,7.5,8,9.9,10.8
		c2.6,3.1,6.5,8.4,8.7,12.2l2,3.4l-2.3-2.1l-2.2-2.1l2.3,2.6c1.3,1.5,2.5,2.6,2.7,2.5c0.2-0.1,0.5,0,0.7,0.3
		c0.2,0.3,0.1,0.4-0.2,0.2c-1-0.5-0.6,0.3,0.7,1.7l1.3,1.3l-0.9-1.3l-0.9-1.3l2.1,1.5c3.1,2.3,4.4,4.7,4.1,7.7
		c-0.3,3-0.8,3.9-1.3,2.4c-0.2-0.7-0.3-0.3-0.1,1.1c0.9,8.2,1.3,19.5,1.1,27.3l-0.3,9.1l-4.2,4.8c-15.1,17.1-24.3,25.9-65,61.7
		c-13.5,11.9-23.9,21.1-23.1,20.5l1.5-1.1l1.5,2.8c1.3,2.3,5.4,7.4,8.1,10c2.3,2.3,9.1,8.2,19.1,16.7c20.1,17.2,45.8,39.9,48.8,43.2
		c3.7,4,5.7,6.9,8.7,11.8c1.3,2.2,3.3,5,4.6,6.3c2.3,2.3,3.2,4.2,2.6,5.7c-0.2,0.4-0.1,1.8,0.2,3.1c1.5,7.1,2.9,20.4,2.9,28.8v4
		l-2,2.4c-4.9,5.9-22.6,24.2-35.1,36.3c-19.2,18.6-47.7,44-63.2,56.2c-10.3,8.1-21.1,16-28.5,20.8c-4.8,3-5.7,3.8-6.2,5.2
		c-0.3,0.9-1,2-1.5,2.5c-1.3,1.1-3.5,1.1-4.6-0.2c-0.5-0.5-2.7-2.2-5-3.7c-4.4-2.9-10.3-7.2-15.4-11.3c-21.8-17.2-70.6-61.7-92-83.7
		l-4-4.2l-2.8,2.5c-1.6,1.4-14.5,12.9-28.6,25.6c-43.5,39.2-68.1,59.4-92.2,75.8c-1.6,1.1-3.2,2.5-3.4,3.1
		C7904.8,11324.9,7902.2,11325.6,7900.6,11324.5z M8286.4,11158.5c-0.3-1.8-1.8-3.3-6.3-6.6c-2.1-1.5-1.7-1.1,1.3,1.4
		c3.4,2.8,4.2,3.8,4.5,5.1c0.1,0.9,0.4,1.6,0.5,1.6S8286.6,11159.3,8286.4,11158.5z M8273.1,10922.2c0-0.1-0.5-0.5-1.1-1l-1.1-0.8
		l0.9,1C8272.8,10922.3,8273.1,10922.6,8273.1,10922.2z M8270.7,10919.6c0-0.1-0.4-0.4-0.8-0.7c-0.8-0.6-0.8-0.5-0.2,0.2
		C8270.3,10919.8,8270.7,10920,8270.7,10919.6z M8195.8,10850c-0.8-0.7-2.5-2.1-3.8-3c-1.4-1.1-1-0.6,1.2,1.3
		C8196.9,10851.4,8198.2,10852.3,8195.8,10850z M7945.1,10847.4c0-0.1-0.5-0.5-1.1-1l-1.1-0.8l0.9,1
		C7944.7,10847.5,7945.1,10847.7,7945.1,10847.4z"/>
</g>
</svg>
