<?xml version="1.0" encoding="utf-8"?>
<!-- Generator: Adobe Illustrator 23.0.1, SVG Export Plug-In . SVG Version: 6.00 Build 0)  -->
<svg version="1.1" id="Layer_1" xmlns="http://www.w3.org/2000/svg" xmlns:xlink="http://www.w3.org/1999/xlink" x="0px" y="0px"
	 viewBox="0 0 628.2 635" style="enable-background:new 0 0 628.2 635;" xml:space="preserve">
<style type="text/css">
	.st0{clip-path:url(#SVGID_2_);}
	.st1{fill:url(#SVGID_3_);}
	.st2{fill:url(#SVGID_4_);}
	.st3{fill:url(#SVGID_5_);}
	.st4{fill:url(#SVGID_6_);}
	.st5{fill:url(#SVGID_7_);}
	.st6{fill:url(#SVGID_8_);}
	.st7{fill:url(#SVGID_9_);}
	.st8{fill:url(#SVGID_10_);}
	.st9{fill:url(#SVGID_11_);}
</style>
<g>
	<defs>
		<rect id="SVGID_1_" width="628.2" height="635"/>
	</defs>
	<clipPath id="SVGID_2_">
		<use xlink:href="#SVGID_1_"  style="overflow:visible;"/>
	</clipPath>
	<g class="st0">
		<linearGradient id="SVGID_3_" gradientUnits="userSpaceOnUse" x1="27.1759" y1="302.0731" x2="205.7298" y2="508.3983">
			<stop  offset="0.1269" style="stop-color:#C07518"/>
			<stop  offset="0.2316" style="stop-color:#D08F2A"/>
			<stop  offset="0.4538" style="stop-color:#F9D057"/>
			<stop  offset="0.481" style="stop-color:#FED85D"/>
			<stop  offset="0.5647" style="stop-color:#EABB4B"/>
			<stop  offset="0.8299" style="stop-color:#AC6414"/>
			<stop  offset="0.9365" style="stop-color:#A65B0F"/>
		</linearGradient>
		<path class="st1" d="M-2,429c2.6-8.2,13.1-13.9,19.4-19.2c10.1-8.6,21.3-15.8,31.6-24.1c19-15.4,38.2-30.7,57.3-46.1
			c25.8-21,50.9-42.7,78.2-61.9c21-14.8,41-21.3,66.4-15.7c17.4,3.9,33.4,13.2,42.9,28.6c6.4,10.4,15.7,30.3,4.7,39.7
			c-38.2,32.6-76.4,65.9-114.6,98.9c-50.5,43.6-98.8,89.7-151,131.4c-10.1,8.1-18.4,18-28.3,26.2c-9,7.4-7.8-0.8-6.9-9
			c0.6-5.5,0.8-10.6,0.5-16.1c-1.3-23.7-1.7-47.4-0.5-71.1c0.7-12.9,1.7-25.4,1-38.3C-1.6,445.3-4.1,435.4-2,429z"/>
		<linearGradient id="SVGID_4_" gradientUnits="userSpaceOnUse" x1="-61.2284" y1="504.378" x2="-61.2284" y2="504.378">
			<stop  offset="0" style="stop-color:#C17517"/>
			<stop  offset="7.175132e-02" style="stop-color:#C67C1C"/>
			<stop  offset="0.1795" style="stop-color:#D2912B"/>
			<stop  offset="0.3091" style="stop-color:#E7B242"/>
			<stop  offset="0.4303" style="stop-color:#FED85D"/>
			<stop  offset="0.4925" style="stop-color:#F3C651"/>
			<stop  offset="0.6371" style="stop-color:#DCA338"/>
			<stop  offset="0.7729" style="stop-color:#CC8926"/>
			<stop  offset="0.8953" style="stop-color:#C2791B"/>
			<stop  offset="0.9924" style="stop-color:#BF7417"/>
		</linearGradient>
		<path class="st2" d="M-61.2,504.4"/>
		<linearGradient id="SVGID_5_" gradientUnits="userSpaceOnUse" x1="196.3044" y1="223.2797" x2="314.8646" y2="348.9962">
			<stop  offset="0" style="stop-color:#6A2B57"/>
			<stop  offset="6.139340e-02" style="stop-color:#71315E"/>
			<stop  offset="0.1536" style="stop-color:#844373"/>
			<stop  offset="0.2652" style="stop-color:#A46095"/>
			<stop  offset="0.3909" style="stop-color:#CF88C3"/>
			<stop  offset="0.4303" style="stop-color:#DE96D3"/>
			<stop  offset="0.549" style="stop-color:#B974AB"/>
			<stop  offset="0.6772" style="stop-color:#985588"/>
			<stop  offset="0.7977" style="stop-color:#803E6E"/>
			<stop  offset="0.9062" style="stop-color:#72315E"/>
			<stop  offset="0.9924" style="stop-color:#6D2C59"/>
		</linearGradient>
		<path class="st3" d="M163,299c27.2-24,55.9-45.4,84.2-68c10-8,17.9-17.8,28.8-24.8c13.7-8.8,37.5-17.5,50-1.3
			c18.3,23.8-15.5,68.3-29.9,84.6c-12,13.4-25.3,25.8-38.1,38.4c-11,10.8-21.7,22.7-36,29c-21,9.3-44.8,8.1-57.6-13.1
			C156.1,330.1,155.3,313.5,163,299z"/>
		<linearGradient id="SVGID_6_" gradientUnits="userSpaceOnUse" x1="116.8006" y1="395.7381" x2="323.2639" y2="614.6635">
			<stop  offset="9.137055e-02" style="stop-color:#C97B16"/>
			<stop  offset="0.1263" style="stop-color:#CD821D"/>
			<stop  offset="0.1787" style="stop-color:#D7972F"/>
			<stop  offset="0.2418" style="stop-color:#E8B84D"/>
			<stop  offset="0.2919" style="stop-color:#F8D869"/>
			<stop  offset="0.4303" style="stop-color:#FEE574"/>
			<stop  offset="0.4728" style="stop-color:#F3CF60"/>
			<stop  offset="0.5541" style="stop-color:#E1AC40"/>
			<stop  offset="0.6304" style="stop-color:#D59229"/>
			<stop  offset="0.6992" style="stop-color:#CD821B"/>
			<stop  offset="0.7538" style="stop-color:#CA7D16"/>
		</linearGradient>
		<path class="st4" d="M-8.5,593.3c7.7-14.1,27.8-21.7,39.9-31.6c18.4-14.9,35.8-31.2,53.1-47.4c26.2-24.3,54.2-46.5,81.3-69.6
			c24.4-20.8,47.9-42.5,72-63.6c30.1-26.4,58.2-54.9,97.6-66.8c22.2-6.7,46.1-5.5,65.8,7.5c22.2,14.7,30.7,37,19.1,61.6
			c-14.8,31.4-48.6,54.6-74,77.5c-31.3,28.2-63.7,55.1-94.2,84.3c-22.8,21.7-44.9,42.4-69.1,62.6c-16.7,14-31,32.7-50.3,43.3
			c-19.3,10.6-42.2,15.3-64,16.2c-20.5,0.9-43.3-1.2-61.2-12C-13.7,642.6-20.4,615-8.5,593.3z"/>
		<linearGradient id="SVGID_7_" gradientUnits="userSpaceOnUse" x1="318.4184" y1="261.0934" x2="438.6046" y2="388.5341">
			<stop  offset="0" style="stop-color:#6A2B57"/>
			<stop  offset="6.139340e-02" style="stop-color:#71315E"/>
			<stop  offset="0.1536" style="stop-color:#844373"/>
			<stop  offset="0.2652" style="stop-color:#A46095"/>
			<stop  offset="0.3909" style="stop-color:#CF88C3"/>
			<stop  offset="0.4303" style="stop-color:#DE96D3"/>
			<stop  offset="0.549" style="stop-color:#B974AB"/>
			<stop  offset="0.6772" style="stop-color:#985588"/>
			<stop  offset="0.7977" style="stop-color:#803E6E"/>
			<stop  offset="0.9062" style="stop-color:#72315E"/>
			<stop  offset="0.9924" style="stop-color:#6D2C59"/>
		</linearGradient>
		<path class="st5" d="M287.5,337.2c6.3-11,19.5-17.5,29.1-25.2c7.8-6.3,15.5-12.8,23.2-19.1c9.8-7.9,19.7-15.7,29.3-23.7
			c14.1-11.8,27.8-26,45.5-32.4c16.6-6,34.2-0.2,38.4,18.3c3.6,16.1-4.9,32.7-12.9,46.2c-10.8,18.2-25.6,35.2-41.6,49.1
			c-14,12.3-26.2,27.5-41.2,38.5c-17,12.4-39.2,17.9-57.8,5.4C280.8,381.6,276.5,356.2,287.5,337.2z"/>
		<linearGradient id="SVGID_8_" gradientUnits="userSpaceOnUse" x1="248.4191" y1="464.5136" x2="457.1882" y2="685.884">
			<stop  offset="9.137055e-02" style="stop-color:#C97B16"/>
			<stop  offset="0.1263" style="stop-color:#CD821D"/>
			<stop  offset="0.1787" style="stop-color:#D7972F"/>
			<stop  offset="0.2418" style="stop-color:#E8B84D"/>
			<stop  offset="0.2919" style="stop-color:#F8D869"/>
			<stop  offset="0.4303" style="stop-color:#FEE574"/>
			<stop  offset="0.4728" style="stop-color:#F3CF60"/>
			<stop  offset="0.5541" style="stop-color:#E1AC40"/>
			<stop  offset="0.6304" style="stop-color:#D59229"/>
			<stop  offset="0.6992" style="stop-color:#CD821B"/>
			<stop  offset="0.7538" style="stop-color:#CA7D16"/>
		</linearGradient>
		<path class="st6" d="M147.3,637.9c37-34.7,74.2-69.2,112.1-102.9c16-14.3,32.6-27.9,48-42.9c29.1-28.5,57.4-58.7,89.4-84.2
			c13.4-10.7,34.7-28.2,50.9-12.8c11.4,10.8,14.6,29.7,17.6,44.3c4.5,22.3,12.9,51.1,6.9,73.6c-4.6,17.3-20.7,32.2-31.9,45.5
			c-11.6,13.8-24,26.9-36.3,40.2c-6.6,7.1-13.1,14.3-19.5,21.6c-4.1,4.6-10.3,15.8-15.8,17.6c-3.8,1.3-10.3,0-14.3,0
			c-22.9,0-45.9,0-68.8,0C239.4,637.9,193.4,637.9,147.3,637.9z"/>
		<linearGradient id="SVGID_9_" gradientUnits="userSpaceOnUse" x1="379.853" y1="385.2505" x2="496.332" y2="508.7602">
			<stop  offset="0" style="stop-color:#6A2B57"/>
			<stop  offset="6.139340e-02" style="stop-color:#71315E"/>
			<stop  offset="0.1536" style="stop-color:#844373"/>
			<stop  offset="0.2652" style="stop-color:#A46095"/>
			<stop  offset="0.3909" style="stop-color:#CF88C3"/>
			<stop  offset="0.4303" style="stop-color:#DE96D3"/>
			<stop  offset="0.549" style="stop-color:#B974AB"/>
			<stop  offset="0.6772" style="stop-color:#985588"/>
			<stop  offset="0.7977" style="stop-color:#803E6E"/>
			<stop  offset="0.9062" style="stop-color:#72315E"/>
			<stop  offset="0.9924" style="stop-color:#6D2C59"/>
		</linearGradient>
		<path class="st7" d="M350.5,458.1c11.7-15.2,27.8-25.5,42.7-37.3c12.5-10,24.2-20.9,35.7-31.9c16.4-15.7,67.4-55.8,80-13.1
			c7.7,26-14.7,53.5-30.2,71.8c-12.9,15.2-26.7,29.7-41.1,43.5c-9,8.6-18,18.4-29.2,24.3c-16.8,9-38.6,9.9-53-4.2
			C340.9,496.9,338,474.4,350.5,458.1z"/>
		<linearGradient id="SVGID_10_" gradientUnits="userSpaceOnUse" x1="481.0737" y1="254.603" x2="629.2702" y2="292.9172">
			<stop  offset="0.1371" style="stop-color:#AC5991"/>
			<stop  offset="0.1811" style="stop-color:#B36098"/>
			<stop  offset="0.247" style="stop-color:#C774AD"/>
			<stop  offset="0.3084" style="stop-color:#DF8CC6"/>
			<stop  offset="0.3799" style="stop-color:#CA77B0"/>
			<stop  offset="0.4818" style="stop-color:#B15E96"/>
			<stop  offset="0.574" style="stop-color:#A24F86"/>
			<stop  offset="0.6472" style="stop-color:#9D4A81"/>
		</linearGradient>
		<path class="st8" d="M437.2,409.8c55.2-3.8,102.6-45.6,99.3-103.3c-1.7-30,13.9-61.8,22.8-90.2c10.4-33.3,20.8-66.6,31.2-99.8
			c-14.6-0.9-29-3.9-42.8-8.8c-7.3,33.3-14.5,66.6-21.8,100c-3.5,16-7,32-10.5,48c-1.9,8.9-1.4,27.9-8.7,34c-3.7,3.1-8.8,3.6-12.7,7
			c-4.9,4.3-8.7,9.8-11.6,15.6c-5.9,12.1-6.8,25.7-8.6,38.8C470.6,376.1,461.5,398.8,437.2,409.8z"/>
		<linearGradient id="SVGID_11_" gradientUnits="userSpaceOnUse" x1="513.4852" y1="44.8032" x2="795.8871" y2="80.4981">
			<stop  offset="4.624400e-02" style="stop-color:#AC5991"/>
			<stop  offset="9.888470e-02" style="stop-color:#C370A9"/>
			<stop  offset="0.1587" style="stop-color:#D885BE"/>
			<stop  offset="0.198" style="stop-color:#DF8CC6"/>
			<stop  offset="0.2777" style="stop-color:#C370A9"/>
			<stop  offset="0.358" style="stop-color:#AE5B93"/>
			<stop  offset="0.4353" style="stop-color:#A14E85"/>
			<stop  offset="0.5055" style="stop-color:#9D4A81"/>
		</linearGradient>
		<path class="st9" d="M630.6-2.1c0,33,0,65.9,0,98.9c0,3.7,1.9,14.1,0,17.2c-1.8,3-6.7,1.7-11.2,1.7c-15.4,0-30.7,0.5-46-1.6
			c-13.3-1.8-26.4-5.8-37.8-12.8c-9.2-5.6-22.7-15-24.7-26.6c-0.9-5.3,1.2-12.6,1.7-17.9c1-10.9,2-21.8,3.1-32.7
			c0.6-6.1-0.8-18.3,2.2-23.6c2-3.6-0.3-1.8,5.1-2.5c19.7-2.5,41.4,0,61.3,0C599.6-2.1,615.1-2.1,630.6-2.1z"/>
	</g>
</g>
</svg>
